  <svg
      xmlns="http://www.w3.org/2000/svg"
      width="1000"
      height="1000"
      version="1.1"
      viewBox="150 150 500 500"
      id="adrianman-pic"
    >
      <g
        fillOpacity="1"
        fillRule="nonzero"
        stroke="none"
        transform="matrix(1.33333 0 0 -1.33333 0 800)"
      >
        <path fill="#445D48" d="M246.5 134h16v16h-16z"></path>
        <path fill="#445D48" d="M230.5 134h16v16h-16z"></path>
        <path fill="#445D48" d="M214.5 134h16v16h-16z"></path>
        <path fill="#445D48" d="M198.5 134h16v16h-16z"></path>
        <path fill="#445D48" d="M182.5 134h16v16h-16z"></path>
        <path fill="#445D48" d="M166.5 134h16v16h-16z"></path>
        <path fill="#445D48" d="M150.5 134h16v16h-16z"></path>
        <path fill="#445D48" d="M246.5 150h16v14h-16z"></path>
        <path fill="#445D48" d="M230.5 150h16v14h-16z"></path>
        <path fill="#445D48" d="M214.5 150h16v14h-16z"></path>
        <path fill="#445D48" d="M198.5 150h16v14h-16z"></path>
        <path fill="#445D48" d="M182.5 150h16v14h-16z"></path>
        <path fill="#445D48" d="M246.5 164h16v16h-16z"></path>
        <path fill="#445D48" d="M230.5 164h16v16h-16z"></path>
        <path fill="#445D48" d="M214.5 164h16v16h-16z"></path>
        <path fill="#445D48" d="M230.5 180h16v14h-16z"></path>
        <path fill="#445D48" d="M214.5 180h16v14h-16z"></path>
        <path fill="#445D48" d="M246.5 180h16v14h-16z"></path>
        <path fill="#445D48" d="M262.5 164h16v16h-16z"></path>
        <path fill="#445D48" d="M230.5 194h16v16h-16z"></path>
        <path fill="#445D48" d="M246.5 194h16v16h-16z"></path>
        <path fill="#445D48" d="M262.5 180h16v14h-16z"></path>
        <path fill="#445D48" d="M278.5 180h16v14h-16z"></path>
        <path fill="#000" d="M278.5 164h16v16h-16z"></path>
        <path fill="#000" d="M294.5 180h16v14h-16z"></path>
        <path fill="#000" d="M310.5 164h16v16h-16z"></path>
        <path fill="#445D48" d="M358.5 134h-16v16h16z"></path>
        <path fill="#445D48" d="M374.5 134h-16v16h16z"></path>
        <path fill="#445D48" d="M390.5 134h-16v16h16z"></path>
        <path fill="#445D48" d="M406.5 134h-16v16h16z"></path>
        <path fill="#445D48" d="M422.5 134h-16v16h16z"></path>
        <path fill="#445D48" d="M438.5 134h-16v16h16z"></path>
        <path fill="#445D48" d="M454.5 134h-16v16h16z"></path>
        <path fill="#445D48" d="M358.5 150h-16v14h16z"></path>
        <path fill="#445D48" d="M374.5 150h-16v14h16z"></path>
        <path fill="#445D48" d="M390.5 150h-16v14h16z"></path>
        <path fill="#445D48" d="M406.5 150h-16v14h16z"></path>
        <path fill="#445D48" d="M422.5 150h-16v14h16z"></path>
        <path fill="#445D48" d="M358.5 164h-16v16h16z"></path>
        <path fill="#445D48" d="M374.5 164h-16v16h16z"></path>
        <path fill="#445D48" d="M390.5 164h-16v16h16z"></path>
        <path fill="#445D48" d="M374.5 180h-16v14h16z"></path>
        <path fill="#445D48" d="M390.5 180h-16v14h16z"></path>
        <path fill="#445D48" d="M358.5 180h-16v14h16z"></path>
        <path fill="#445D48" d="M342.5 164h-16v16h16z"></path>
        <path fill="#445D48" d="M374.5 194h-16v16h16z"></path>
        <path fill="#445D48" d="M358.5 194h-16v16h16z"></path>
        <path fill="#445D48" d="M342.5 180h-16v14h16z"></path>
        <path fill="#445D48" d="M326.5 180h-16v14h16z"></path>
        <path fill="#445D48" d="M342.5 194h-16v16h16z"></path>
        <path fill="#445D48" d="M326.5 194h-16v16h16z"></path>
        <path fill="#445D48" d="M310.5 194h-16v16h16z"></path>
        <path fill="#445D48" d="M294.5 194h-16v16h16z"></path>
        <path fill="#445D48" d="M278.5 194h-16v16h16z"></path>
        <path fill="#445D48" d="M326.5 210h-16v14h16z"></path>
        <path fill="#445D48" d="M310.5 210h-16v14h16z"></path>
        <path fill="#445D48" d="M294.5 210h-16v14h16z"></path>
        <path fill="#445D48" d="M278.5 210h-16v14h16z"></path>
        <path fill="#445D48" d="M262.5 210h-16v14h16z"></path>
        <path fill="#445D48" d="M358.5 210h-16v14h16z"></path>
        <path fill="#445D48" d="M342.5 210h-16v14h16z"></path>
        <path fill="#445D48" d="M326.5 224h-16v16h16z"></path>
        <path fill="#445D48" d="M310.5 224h-16v16h16z"></path>
        <path fill="#445D48" d="M294.5 224h-16v16h16z"></path>
        <path fill="#445D48" d="M278.5 224h-16v16h16z"></path>
        <path fill="#445D48" d="M262.5 224h-16v16h16z"></path>
        <path fill="#445D48" d="M358.5 224h-16v16h16z"></path>
        <path fill="#445D48" d="M342.5 224h-16v16h16z"></path>
        <path fill="#3876BF" d="M326.5 240h-16v14h16z"></path>
        <path fill="#3876BF" d="M310.5 240h-16v14h16z"></path>
        <path fill="#3876BF" d="M294.5 240h-16v14h16z"></path>
        <path fill="#3876BF" d="M278.5 240h-16v14h16z"></path>
        <path fill="#3876BF" d="M262.5 240h-16v14h16z"></path>
        <path fill="#3876BF" d="M358.5 240h-16v14h16z"></path>
        <path fill="#3876BF" d="M342.5 240h-16v14h16z"></path>
        <path fill="#3876BF" d="M326.5 254h-16v16h16z"></path>
        <path fill="#3876BF" d="M310.5 254h-16v16h16z"></path>
        <path fill="#3876BF" d="M294.5 254h-16v16h16z"></path>
        <path fill="#3876BF" d="M278.5 254h-16v16h16z"></path>
        <path fill="#3876BF" d="M262.5 254h-16v16h16z"></path>
        <path fill="#3876BF" d="M358.5 254h-16v16h16z"></path>
        <path fill="#3876BF" d="M342.5 254h-16v16h16z"></path>
        <path fill="#3876BF" d="M326.5 270h-16v14h16z"></path>
        <path fill="#3876BF" d="M310.5 270h-16v14h16z"></path>
        <path fill="#3876BF" d="M294.5 270h-16v14h16z"></path>
        <path fill="#3876BF" d="M278.5 270h-16v14h16z"></path>
        <path fill="#3876BF" d="M262.5 270h-16v14h16z"></path>
        <path fill="#3876BF" d="M358.5 270h-16v14h16z"></path>
        <path fill="#3876BF" d="M342.5 270h-16v14h16z"></path>
        <path fill="#3876BF" d="M374.5 284h-16v16h16z"></path>
        <path fill="#3876BF" d="M390.5 284h-16v16h16z"></path>
        <path fill="#3876BF" d="M390.5 270h-16v14h16z"></path>
        <path fill="#3876BF" d="M390.5 300h-16v14h16z"></path>
        <path fill="#3876BF" d="M406.5 300h-16v14h16z"></path>
        <path fill="#3876BF" d="M262.5 284h-16v16h16z"></path>
        <path fill="#3876BF" d="M278.5 284h-16v16h16z"></path>
        <path fill="#3876BF" d="M230.5 284h-16v16h16z"></path>
        <path fill="#3876BF" d="M246.5 284h-16v16h16z"></path>
        <path fill="#3876BF" d="M230.5 270h-16v14h16z"></path>
        <path fill="#3876BF" d="M262.5 300h-16v14h16z"></path>
        <path fill="#3876BF" d="M230.5 300h-16v14h16z"></path>
        <path fill="#3876BF" d="M246.5 300h-16v14h16z"></path>
        <path fill="#3876BF" d="M214.5 300h-16v14h16z"></path>
        <path fill="#fbdb7b" d="M214.5 284h-16v16h16z"></path>
        <path fill="#fbdb7b" d="M214.5 270h-16v14h16z"></path>
        <path fill="#fbdb7b" d="M198.5 300h-16v14h16z"></path>
        <path fill="#fbdb7b" d="M198.5 284h-16v16h16z"></path>
        <path fill="#fbdb7b" d="M198.5 270h-16v14h16z"></path>
        <path fill="#fbdb7b" d="M198.5 254h-16v16h16z"></path>
        <path fill="#fbdb7b" d="M182.5 270h-16v14h16z"></path>
        <path fill="#fbdb7b" d="M182.5 254h-16v16h16z"></path>
        <path fill="#fbdb7b" d="M214.5 240h-16v14h16z"></path>
        <path fill="#fbdb7b" d="M198.5 240h-16v14h16z"></path>
        <path fill="#fbdb7b" d="M182.5 240h-16v14h16z"></path>
        <path fill="#fbdb7b" d="M214.5 224h-16v16h16z"></path>
        <path fill="#fbdb7b" d="M198.5 224h-16v16h16z"></path>
        <path fill="#fbdb7b" d="M182.5 224h-16v16h16z"></path>
        <path fill="#fbdb7b" d="M422.5 300h-16v14h16z"></path>
        <path fill="#fbdb7b" d="M422.5 284h-16v16h16z"></path>
        <path fill="#fbdb7b" d="M406.5 284h-16v16h16z"></path>
        <path fill="#fbdb7b" d="M406.5 270h-16v14h16z"></path>
        <path fill="#fbdb7b" d="M422.5 270h-16v14h16z"></path>
        <path fill="#fbdb7b" d="M438.5 270h-16v14h16z"></path>
        <path fill="#fbdb7b" d="M422.5 254h-16v16h16z"></path>
        <path fill="#fbdb7b" d="M438.5 254h-16v16h16z"></path>
        <path fill="#fbdb7b" d="M438.5 240h-16v14h16z"></path>
        <path fill="#fbdb7b" d="M422.5 240h-16v14h16z"></path>
        <path fill="#fbdb7b" d="M406.5 240h-16v14h16z"></path>
        <path fill="#fbdb7b" d="M438.5 224h-16v16h16z"></path>
        <path fill="#fbdb7b" d="M422.5 224h-16v16h16z"></path>
        <path fill="#fbdb7b" d="M406.5 224h-16v16h16z"></path>
        <path fill="#000" d="M294.5 284h-16v16h16z"></path>
        <path fill="#000" d="M310.5 284h-16v16h16z"></path>
        <path fill="#000" d="M326.5 284h-16v16h16z"></path>
        <path fill="#000" d="M342.5 284h-16v16h16z"></path>
        <path fill="#000" d="M358.5 284h-16v16h16z"></path>
        <path fill="#000" d="M278.5 300h-16v14h16z"></path>
        <path fill="#000" d="M374.5 300h-16v14h16z"></path>
        <path fill="#fbdb7b" d="M358.5 300h-16v14h16z"></path>
        <path fill="#fbdb7b" d="M342.5 300h-16v14h16z"></path>
        <path fill="#fbdb7b" d="M326.5 300h-16v14h16z"></path>
        <path fill="#fbdb7b" d="M310.5 300h-16v14h16z"></path>
        <path fill="#fbdb7b" d="M294.5 300h-16v14h16z"></path>
        <path fill="#000" d="M438.5 284h-16v16h16z"></path>
        <path fill="#000" d="M438.5 300h-16v14h16z"></path>
        <path fill="#000" d="M454.5 270h-16v14h16z"></path>
        <path fill="#000" d="M454.5 254h-16v16h16z"></path>
        <path fill="#000" d="M454.5 240h-16v14h16z"></path>
        <path fill="#000" d="M454.5 224h-16v16h16z"></path>
        <path fill="#000" d="M438.5 210h-16v14h16z"></path>
        <path fill="#000" d="M422.5 210h-16v14h16z"></path>
        <path fill="#000" d="M406.5 210h-16v14h16z"></path>
        <path fill="#000" d="M374.5 210h-16v14h16z"></path>
        <path fill="#000" d="M374.5 270h-16v14h16z"></path>
        <path fill="#000" d="M374.5 254h-16v16h16z"></path>
        <path fill="#000" d="M374.5 240h-16v14h16z"></path>
        <path fill="#000" d="M374.5 224h-16v16h16z"></path>
        <path fill="#000" d="M406.5 254h-16v16h16z"></path>
        <path fill="#000" d="M390.5 254h-16v16h16z"></path>
        <path fill="#000" d="M246.5 270h-16v14h16z"></path>
        <path fill="#000" d="M390.5 224h-16v16h16z"></path>
        <path fill="#000" d="M422.5 314h-16v16h16z"></path>
        <path fill="#000" d="M406.5 314h-16v16h16z"></path>
        <path fill="#000" d="M390.5 314h-16v16h16z"></path>
        <path fill="#000" d="M390.5 194h-16v16h16z"></path>
        <path fill="#000" d="M342.5 150h-16v14h16z"></path>
        <path fill="#000" d="M342.5 134h-16v16h16z"></path>
        <path fill="#000" d="M342.5 120h-16v14h16z"></path>
        <path fill="#000" d="M278.5 150h-16v14h16z"></path>
        <path fill="#000" d="M278.5 134h-16v16h16z"></path>
        <path fill="#000" d="M278.5 120h-16v14h16z"></path>
        <path fill="#000" d="M358.5 120h-16v14h16z"></path>
        <path fill="#000" d="M374.5 120h-16v14h16z"></path>
        <path fill="#000" d="M390.5 120h-16v14h16z"></path>
        <path fill="#000" d="M406.5 120h-16v14h16z"></path>
        <path fill="#000" d="M422.5 120h-16v14h16z"></path>
        <path fill="#000" d="M438.5 120h-16v14h16z"></path>
        <path fill="#000" d="M454.5 120h-16v14h16z"></path>
        <path fill="#000" d="M166.5 120h-16v14h16z"></path>
        <path fill="#000" d="M182.5 120h-16v14h16z"></path>
        <path fill="#000" d="M198.5 120h-16v14h16z"></path>
        <path fill="#000" d="M214.5 120h-16v14h16z"></path>
        <path fill="#000" d="M230.5 120h-16v14h16z"></path>
        <path fill="#000" d="M246.5 120h-16v14h16z"></path>
        <path fill="#000" d="M262.5 120h-16v14h16z"></path>
        <path fill="#000" d="M470.5 134h-16v16h16z"></path>
        <path fill="#000" d="M470.5 120h-16v14h16z"></path>
        <path fill="#000" d="M150.5 134h-16v16h16z"></path>
        <path fill="#000" d="M150.5 120h-16v14h16z"></path>
        <path fill="#000" d="M438.5 150h-16v14h16z"></path>
        <path fill="#000" d="M454.5 150h-16v14h16z"></path>
        <path fill="#000" d="M166.5 150h-16v14h16z"></path>
        <path fill="#000" d="M182.5 150h-16v14h16z"></path>
        <path fill="#000" d="M406.5 164h-16v16h16z"></path>
        <path fill="#000" d="M422.5 164h-16v16h16z"></path>
        <path fill="#000" d="M406.5 180h-16v14h16z"></path>
        <path fill="#000" d="M198.5 164h16v16h-16z"></path>
        <path fill="#000" d="M182.5 164h16v16h-16z"></path>
        <path fill="#000" d="M198.5 180h16v14h-16z"></path>
        <path fill="#000" d="M214.5 210h-16v14h16z"></path>
        <path fill="#000" d="M198.5 210h-16v14h16z"></path>
        <path fill="#000" d="M182.5 210h-16v14h16z"></path>
        <path fill="#000" d="M230.5 194h-16v16h16z"></path>
        <path fill="#000" d="M166.5 270h-16v14h16z"></path>
        <path fill="#000" d="M166.5 254h-16v16h16z"></path>
        <path fill="#000" d="M166.5 240h-16v14h16z"></path>
        <path fill="#000" d="M166.5 224h-16v16h16z"></path>
        <path fill="#000" d="M182.5 284h-16v16h16z"></path>
        <path fill="#000" d="M182.5 300h-16v14h16z"></path>
        <path fill="#000" d="M390.5 240h-16v14h16z"></path>
        <path fill="#000" d="M214.5 254h-16v16h16z"></path>
        <path fill="#000" d="M246.5 254h-16v16h16z"></path>
        <path fill="#000" d="M230.5 254h-16v16h16z"></path>
        <path fill="#000" d="M214.5 224h16v16h-16z"></path>
        <path fill="#000" d="M214.5 240h16v14h-16z"></path>
        <path fill="#000" d="M230.5 210h16v14h-16z"></path>
        <path fill="#000" d="M230.5 224h16v16h-16z"></path>
        <path fill="#000" d="M230.5 240h16v14h-16z"></path>
        <path fill="#000" d="M262.5 314h-16v16h16z"></path>
        <path fill="#000" d="M358.5 314h-16v16h16z"></path>
        <path fill="#000" d="M342.5 314h-16v16h16z"></path>
        <path fill="#000" d="M326.5 314h-16v16h16z"></path>
        <path fill="#000" d="M310.5 314h-16v16h16z"></path>
        <path fill="#000" d="M246.5 330h-16v14h16z"></path>
        <path fill="#000" d="M230.5 330h-16v14h16z"></path>
        <path fill="#000" d="M246.5 344h-16v16h16z"></path>
        <path fill="#000" d="M230.5 344h-16v16h16z"></path>
        <path fill="#3876BF" d="M246.5 314h-16v16h16z"></path>
        <path fill="#3876BF" d="M230.5 314h-16v16h16z"></path>
        <path fill="#000" d="M214.5 314h-16v16h16z"></path>
        <path fill="#000" d="M198.5 314h-16v16h16z"></path>
        <path fill="#fbdb7b" d="M374.5 314h-16v16h16z"></path>
        <path fill="#fbdb7b" d="M390.5 330h-16v14h16z"></path>
        <path fill="#000" d="M406.5 330h-16v14h16z"></path>
        <path fill="#000" d="M406.5 344h-16v16h16z"></path>
        <path fill="#000" d="M374.5 344h-16v16h16z"></path>
        <path fill="#000" d="M374.5 360h-16v14h16z"></path>
        <path fill="#fbdb7b" d="M374.5 374h-16v16h16z"></path>
        <path fill="#fbdb7b" d="M358.5 374h-16v16h16z"></path>
        <path fill="#fbdb7b" d="M358.5 390h-16v14h16z"></path>
        <path fill="#fbdb7b" d="M358.5 360h-16v14h16z"></path>
        <path fill="#fbdb7b" d="M358.5 344h-16v16h16z"></path>
        <path fill="#fbdb7b" d="M358.5 330h-16v14h16z"></path>
        <path fill="#000" d="M390.5 390h-16v14h16z"></path>
        <path fill="#000" d="M374.5 390h-16v14h16z"></path>
        <path fill="#000" d="M406.5 360h-16v14h16z"></path>
        <path fill="#000" d="M406.5 374h-16v16h16z"></path>
        <path fill="#000" d="M342.5 344h-16v16h16z"></path>
        <path fill="#000" d="M326.5 344h-16v16h16z"></path>
        <path fill="#000" d="M342.5 360h-16v14h16z"></path>
        <path fill="#000" d="M326.5 360h-16v14h16z"></path>
        <path fill="#000" d="M342.5 390h-16v14h16z"></path>
        <path fill="#000" d="M326.5 390h-16v14h16z"></path>
        <path fill="#000" d="M406.5 390h-16v14h16z"></path>
        <path fill="#000" d="M422.5 374h-16v16h16z"></path>
        <path fill="#000" d="M422.5 390h-16v14h16z"></path>
        <path fill="#000" d="M422.5 420h-16v14h16z"></path>
        <path fill="#000" d="M422.5 434h-16v16h16z"></path>
        <path fill="#000" d="M406.5 404h-16v16h16z"></path>
        <path fill="#fbdb7b" d="M310.5 390h-16v14h16z"></path>
        <path fill="#fbdb7b" d="M294.5 374h-16v16h16z"></path>
        <path fill="#fbdb7b" d="M294.5 330h-16v14h16z"></path>
        <path fill="#fbdb7b" d="M294.5 314h-16v16h16z"></path>
        <path fill="#fbdb7b" d="M278.5 314h-16v16h16z"></path>
        <path fill="#fbdb7b" d="M278.5 330h-16v14h16z"></path>
        <path fill="#fbdb7b" d="M262.5 330h-16v14h16z"></path>
        <path fill="#fbdb7b" d="M278.5 344h-16v16h16z"></path>
        <path fill="#fbdb7b" d="M262.5 344h-16v16h16z"></path>
        <path fill="#000" d="M278.5 360h-16v14h16z"></path>
        <path fill="#000" d="M262.5 360h-16v14h16z"></path>
        <path fill="#000" d="M278.5 374h-16v16h16z"></path>
        <path fill="#000" d="M262.5 374h-16v16h16z"></path>
        <path fill="#000" d="M278.5 390h-16v14h16z"></path>
        <path fill="#000" d="M262.5 390h-16v14h16z"></path>
        <path fill="#000" d="M294.5 390h-16v14h16z"></path>
        <path fill="#fbdb7b" d="M246.5 360h-16v14h16z"></path>
        <path fill="#fbdb7b" d="M246.5 374h-16v16h16z"></path>
        <path fill="#fbdb7b" d="M246.5 390h-16v14h16z"></path>
        <path fill="#000" d="M230.5 360h-16v14h16z"></path>
        <path fill="#000" d="M214.5 360h-16v14h16z"></path>
        <path fill="#000" d="M230.5 374h-16v16h16z"></path>
        <path fill="#000" d="M214.5 374h-16v16h16z"></path>
        <path fill="#000" d="M198.5 374h-16v16h16z"></path>
        <path fill="#000" d="M230.5 390h-16v14h16z"></path>
        <path fill="#000" d="M214.5 390h-16v14h16z"></path>
        <path fill="#000" d="M230.5 404h-16v16h16z"></path>
        <path fill="#000" d="M214.5 404h-16v16h16z"></path>
        <path fill="#000" d="M198.5 404h-16v16h16z"></path>
        <path fill="#000" d="M406.5 420h-16v14h16z"></path>
        <path fill="#000" d="M406.5 434h-16v16h16z"></path>
        <path fill="#000" d="M406.5 450h-16v14h16z"></path>
        <path fill="#000" d="M374.5 450h-16v14h16z"></path>
        <path fill="#000" d="M358.5 450h-16v14h16z"></path>
        <path fill="#000" d="M342.5 464h-16v16h16z"></path>
        <path fill="#000" d="M326.5 464h-16v16h16z"></path>
        <path fill="#000" d="M310.5 464h-16v16h16z"></path>
        <path fill="#000" d="M294.5 450h-16v14h16z"></path>
        <path fill="#000" d="M278.5 450h-16v14h16z"></path>
        <path fill="#000" d="M262.5 434h-16v16h16z"></path>
        <path fill="#000" d="M246.5 434h-16v16h16z"></path>
        <path fill="#000" d="M230.5 434h-16v16h16z"></path>
        <path fill="#000" d="M390.5 404h-16v16h16z"></path>
        <path fill="#000" d="M374.5 404h-16v16h16z"></path>
        <path fill="#000" d="M358.5 404h-16v16h16z"></path>
        <path fill="#000" d="M390.5 420h-16v14h16z"></path>
        <path fill="#000" d="M374.5 420h-16v14h16z"></path>
        <path fill="#000" d="M358.5 420h-16v14h16z"></path>
        <path fill="#000" d="M390.5 434h-16v16h16z"></path>
        <path fill="#000" d="M374.5 434h-16v16h16z"></path>
        <path fill="#000" d="M358.5 434h-16v16h16z"></path>
        <path fill="#000" d="M342.5 404h-16v16h16z"></path>
        <path fill="#000" d="M326.5 404h-16v16h16z"></path>
        <path fill="#000" d="M310.5 404h-16v16h16z"></path>
        <path fill="#000" d="M342.5 420h-16v14h16z"></path>
        <path fill="#000" d="M326.5 420h-16v14h16z"></path>
        <path fill="#000" d="M310.5 420h-16v14h16z"></path>
        <path fill="#000" d="M342.5 434h-16v16h16z"></path>
        <path fill="#000" d="M326.5 434h-16v16h16z"></path>
        <path fill="#000" d="M310.5 434h-16v16h16z"></path>
        <path fill="#000" d="M294.5 404h-16v16h16z"></path>
        <path fill="#000" d="M278.5 404h-16v16h16z"></path>
        <path fill="#000" d="M294.5 420h-16v14h16z"></path>
        <path fill="#000" d="M278.5 420h-16v14h16z"></path>
        <path fill="#000" d="M294.5 434h-16v16h16z"></path>
        <path fill="#000" d="M278.5 434h-16v16h16z"></path>
        <path fill="#000" d="M342.5 450h-16v14h16z"></path>
        <path fill="#000" d="M326.5 450h-16v14h16z"></path>
        <path fill="#000" d="M310.5 450h-16v14h16z"></path>
        <path fill="#000" d="M262.5 404h-16v16h16z"></path>
        <path fill="#000" d="M246.5 404h-16v16h16z"></path>
        <path fill="#000" d="M262.5 420h-16v14h16z"></path>
        <path fill="#000" d="M246.5 420h-16v14h16z"></path>
      </g>
    </svg>
  